<?xml version="1.0" encoding="utf-8"?>
<!-- Generator: Adobe Illustrator 22.1.0, SVG Export Plug-In . SVG Version: 6.00 Build 0)  -->
<svg version="1.1" xmlns="http://www.w3.org/2000/svg" xmlns:xlink="http://www.w3.org/1999/xlink" x="0px" y="0px"
	 viewBox="0 0 612 396" enable-background="new 0 0 612 396" xml:space="preserve">
<g id="Layer_1">
	<g>
		<g>
			<g enable-background="new    ">
				<g>
					<path fill="#9A1D44" d="M449.8,286.7c0,2,0,1.9,0,3.9L295,287.8c0-0.4,0-0.7,0-1.1H449.8z"/>
				</g>
				<g enable-background="new    ">
					<defs>
						<path id="SVGID_1_" enable-background="new    " d="M449.8,286.7l10.3-2.8c0,2,0,1.9,0,3.9l-10.3,2.8
							C449.8,288.7,449.8,288.7,449.8,286.7z"/>
					</defs>
					<clipPath id="SVGID_2_">
						<use xlink:href="#SVGID_1_"  overflow="visible"/>
					</clipPath>
					<g clip-path="url(#SVGID_2_)" enable-background="new    ">
						<path fill="#8F183F" d="M449.8,286.7l10.3-2.8c0,0.7,0,1.1,0,1.5l-10.3,2.8C449.8,287.9,449.8,287.4,449.8,286.7"/>
						<path fill="#8F183F" d="M449.8,288.3l10.3-2.8c0,0.2,0,0.5,0,0.7l-10.3,2.8C449.8,288.7,449.8,288.5,449.8,288.3"/>
						<path fill="#8F183F" d="M449.8,288.9l10.3-2.8c0,0.4,0,0.9,0,1.7l-10.3,2.8C449.8,289.8,449.8,289.3,449.8,288.9"/>
					</g>
				</g>
				<g>
					<polygon fill="#851339" points="295.1,286.7 305.4,283.9 460.1,283.9 449.8,286.7 					"/>
				</g>
			</g>
			<g enable-background="new    ">
				<g enable-background="new    ">
					<defs>
						<path id="SVGID_3_" enable-background="new    " d="M210.2,202l10.3-2.8c-28.2,7.6-48.7,34.3-48.1,66c0,0.5,0,1,0.1,1.4
							l-10.3,2.8c0-0.5-0.1-1-0.1-1.4C161.5,236.3,182,209.7,210.2,202z"/>
					</defs>
					<clipPath id="SVGID_4_">
						<use xlink:href="#SVGID_3_"  overflow="visible"/>
					</clipPath>
					<g clip-path="url(#SVGID_4_)" enable-background="new    ">
						<path fill="#07564D" d="M210.2,202l10.3-2.8c-8.4,2.3-16.2,6.3-22.9,11.5l-10.3,2.8C194,208.3,201.8,204.3,210.2,202"/>
						<path fill="#07564D" d="M187.3,213.6l10.3-2.8c-0.6,0.5-1.2,1-1.8,1.5l-10.3,2.8C186.1,214.6,186.7,214.1,187.3,213.6"/>
						<path fill="#07564D" d="M185.5,215.1l10.3-2.8c-0.5,0.5-1.1,0.9-1.6,1.4l-10.3,2.8C184.4,216,185,215.5,185.5,215.1"/>
						<path fill="#07564D" d="M183.9,216.5l10.3-2.8c-0.3,0.3-0.7,0.6-1,0.9l-10.3,2.8C183.2,217.1,183.6,216.8,183.9,216.5"/>
						<path fill="#08564D" d="M182.9,217.4l10.3-2.8c-0.3,0.3-0.7,0.6-1,1l-10.3,2.8C182.2,218.1,182.6,217.7,182.9,217.4"/>
						<path fill="#08564D" d="M181.9,218.4l10.3-2.8c-0.3,0.3-0.7,0.7-1,1l-10.3,2.8C181.2,219.1,181.6,218.7,181.9,218.4"/>
						<path fill="#08564D" d="M180.9,219.4l10.3-2.8c-0.3,0.3-0.5,0.6-0.8,0.8l-10.3,2.8C180.4,219.9,180.7,219.7,180.9,219.4"/>
						<path fill="#08564D" d="M180.1,220.2l10.3-2.8c-0.2,0.2-0.5,0.5-0.7,0.7l-10.3,2.8C179.7,220.7,179.9,220.5,180.1,220.2"/>
						<path fill="#08564D" d="M179.4,221l10.3-2.8c-0.2,0.2-0.4,0.5-0.7,0.7l-10.3,2.8C179,221.5,179.2,221.2,179.4,221"/>
						<path fill="#08574D" d="M178.8,221.7l10.3-2.8c-0.2,0.3-0.4,0.5-0.7,0.8l-10.3,2.8C178.3,222.2,178.6,222,178.8,221.7"/>
						<path fill="#08574E" d="M178.1,222.5l10.3-2.8c-0.2,0.3-0.4,0.5-0.6,0.8l-10.3,2.8C177.7,223,177.9,222.7,178.1,222.5"/>
						<path fill="#08574E" d="M177.5,223.3l10.3-2.8c-0.2,0.2-0.4,0.5-0.6,0.7l-10.3,2.8C177.1,223.7,177.3,223.5,177.5,223.3"/>
						<path fill="#08574E" d="M176.9,223.9l10.3-2.8c-0.2,0.2-0.3,0.4-0.5,0.6l-10.3,2.8C176.6,224.4,176.7,224.2,176.9,223.9"/>
						<path fill="#08574E" d="M176.4,224.6l10.3-2.8c-0.2,0.2-0.3,0.4-0.5,0.6l-10.3,2.8C176.1,225,176.2,224.8,176.4,224.6"/>
						<path fill="#08574E" d="M175.9,225.2l10.3-2.8c-0.2,0.2-0.3,0.4-0.5,0.6l-10.3,2.8C175.6,225.6,175.8,225.4,175.9,225.2"/>
						<path fill="#09574E" d="M175.4,225.8l10.3-2.8c-0.2,0.2-0.3,0.4-0.5,0.6l-10.3,2.8C175.1,226.3,175.3,226.1,175.4,225.8"/>
						<path fill="#09574E" d="M175,226.5l10.3-2.8c-0.2,0.2-0.3,0.4-0.5,0.7l-10.3,2.8C174.7,226.9,174.8,226.7,175,226.5"/>
						<path fill="#09574E" d="M174.5,227.1l10.3-2.8c-0.2,0.2-0.3,0.4-0.5,0.6l-10.3,2.8C174.2,227.6,174.3,227.4,174.5,227.1"/>
						<path fill="#09584E" d="M174,227.8l10.3-2.8c-0.1,0.2-0.3,0.4-0.4,0.6l-10.3,2.8C173.8,228.2,173.9,228,174,227.8"/>
						<path fill="#09584E" d="M173.7,228.3l10.3-2.8c-0.1,0.2-0.3,0.4-0.4,0.6l-10.3,2.8C173.4,228.7,173.5,228.5,173.7,228.3"/>
						<path fill="#09584E" d="M173.3,228.9l10.3-2.8c-0.1,0.2-0.2,0.4-0.4,0.6l-10.3,2.8C173,229.3,173.2,229.1,173.3,228.9"/>
						<path fill="#09584F" d="M172.9,229.5l10.3-2.8c-0.1,0.2-0.2,0.4-0.4,0.6l-10.3,2.8C172.7,229.9,172.8,229.7,172.9,229.5"/>
						<path fill="#09584F" d="M172.6,230l10.3-2.8c-0.1,0.2-0.2,0.4-0.4,0.6l-10.3,2.8C172.3,230.4,172.4,230.2,172.6,230"/>
						<path fill="#09584F" d="M172.2,230.6l10.3-2.8c-0.1,0.2-0.2,0.4-0.4,0.6l-10.3,2.8C172,231,172.1,230.8,172.2,230.6"/>
						<path fill="#09584F" d="M171.8,231.2l10.3-2.8c-0.1,0.2-0.2,0.4-0.3,0.6l-10.3,2.8C171.6,231.6,171.7,231.4,171.8,231.2"/>
						<path fill="#0A584F" d="M171.5,231.8l10.3-2.8c-0.1,0.2-0.2,0.4-0.3,0.6l-10.3,2.8C171.3,232.1,171.4,232,171.5,231.8"/>
						<path fill="#0A584F" d="M171.2,232.3l10.3-2.8c-0.1,0.2-0.2,0.3-0.3,0.5l-10.3,2.8C171,232.7,171.1,232.5,171.2,232.3"/>
						<path fill="#0A584F" d="M170.9,232.8l10.3-2.8c-0.1,0.2-0.2,0.3-0.3,0.5l-10.3,2.8C170.7,233.2,170.8,233,170.9,232.8"/>
						<path fill="#0A594F" d="M170.6,233.4l10.3-2.8c-0.1,0.2-0.2,0.3-0.3,0.5l-10.3,2.8C170.4,233.7,170.5,233.5,170.6,233.4"/>
						<path fill="#0A594F" d="M170.3,233.9l10.3-2.8c-0.1,0.2-0.2,0.4-0.3,0.5l-10.3,2.8C170.1,234.2,170.2,234.1,170.3,233.9"/>
						<path fill="#0A594F" d="M170,234.4l10.3-2.8c-0.1,0.2-0.2,0.4-0.3,0.5l-10.3,2.8C169.8,234.8,169.9,234.6,170,234.4"/>
						<path fill="#0A5950" d="M169.7,234.9l10.3-2.8c-0.1,0.2-0.2,0.4-0.3,0.5l-10.3,2.8C169.6,235.3,169.6,235.1,169.7,234.9"/>
						<path fill="#0A5950" d="M169.5,235.5l10.3-2.8c-0.1,0.2-0.2,0.4-0.3,0.5l-10.3,2.8C169.3,235.8,169.4,235.7,169.5,235.5"/>
						<path fill="#0A5950" d="M169.2,236l10.3-2.8c-0.1,0.2-0.2,0.4-0.3,0.5l-10.3,2.8C169,236.4,169.1,236.2,169.2,236"/>
						<path fill="#0A5950" d="M168.9,236.6l10.3-2.8c-0.1,0.2-0.2,0.3-0.2,0.5l-10.3,2.8C168.8,236.9,168.9,236.7,168.9,236.6"/>
						<path fill="#0A5950" d="M168.7,237.1l10.3-2.8c-0.1,0.2-0.2,0.3-0.2,0.5l-10.3,2.8C168.5,237.4,168.6,237.2,168.7,237.1"/>
						<path fill="#0B5950" d="M168.5,237.5l10.3-2.8c-0.1,0.2-0.2,0.3-0.2,0.5l-10.3,2.8C168.3,237.9,168.4,237.7,168.5,237.5"/>
						<path fill="#0B5950" d="M168.2,238l10.3-2.8c-0.1,0.2-0.2,0.3-0.2,0.5l-10.3,2.8C168.1,238.4,168.2,238.2,168.2,238"/>
						<path fill="#0B5A50" d="M168,238.5l10.3-2.8c-0.1,0.2-0.1,0.3-0.2,0.5l-10.3,2.8C167.9,238.9,167.9,238.7,168,238.5"/>
						<path fill="#0B5A50" d="M167.8,239l10.3-2.8c-0.1,0.2-0.1,0.3-0.2,0.5l-10.3,2.8C167.6,239.4,167.7,239.2,167.8,239"/>
						<path fill="#0B5A50" d="M167.6,239.5l10.3-2.8c-0.1,0.2-0.1,0.3-0.2,0.5l-10.3,2.8C167.4,239.9,167.5,239.7,167.6,239.5"/>
						<path fill="#0B5A50" d="M167.4,240l10.3-2.8c-0.1,0.2-0.1,0.3-0.2,0.5l-10.3,2.8C167.2,240.4,167.3,240.2,167.4,240"/>
						<path fill="#0B5A51" d="M167.1,240.6l10.3-2.8c-0.1,0.2-0.1,0.3-0.2,0.5l-10.3,2.8C167,240.9,167.1,240.7,167.1,240.6"/>
						<path fill="#0B5A51" d="M166.9,241.1l10.3-2.8c-0.1,0.2-0.1,0.3-0.2,0.5l-10.3,2.8C166.8,241.4,166.9,241.2,166.9,241.1"/>
						<path fill="#0B5A51" d="M166.7,241.6l10.3-2.8c-0.1,0.2-0.1,0.3-0.2,0.5l-10.3,2.8C166.6,241.9,166.7,241.7,166.7,241.6"/>
						<path fill="#0B5A51" d="M166.6,242l10.3-2.8c-0.1,0.2-0.1,0.3-0.2,0.5l-10.3,2.8C166.4,242.4,166.5,242.2,166.6,242"/>
						<path fill="#0B5A51" d="M166.4,242.5l10.3-2.8c-0.1,0.2-0.1,0.3-0.2,0.5l-10.3,2.8C166.3,242.8,166.3,242.7,166.4,242.5"/>
						<path fill="#0C5A51" d="M166.2,243l10.3-2.8c-0.1,0.2-0.1,0.3-0.2,0.5l-10.3,2.8C166.1,243.3,166.1,243.2,166.2,243"/>
						<path fill="#0C5B51" d="M166,243.5l10.3-2.8c-0.1,0.2-0.1,0.3-0.2,0.5l-10.3,2.8C165.9,243.8,166,243.7,166,243.5"/>
						<path fill="#0C5B51" d="M165.9,244l10.3-2.8c-0.1,0.2-0.1,0.3-0.2,0.5l-10.3,2.8C165.7,244.3,165.8,244.1,165.9,244"/>
						<path fill="#0C5B51" d="M165.7,244.5l10.3-2.8c-0.1,0.2-0.1,0.3-0.2,0.5l-10.3,2.8C165.6,244.8,165.6,244.6,165.7,244.5"/>
						<path fill="#0C5B51" d="M165.5,245l10.3-2.8c-0.1,0.2-0.1,0.3-0.2,0.5l-10.3,2.8C165.4,245.3,165.5,245.1,165.5,245"/>
						<path fill="#0C5B52" d="M165.4,245.4l10.3-2.8c-0.1,0.2-0.1,0.3-0.2,0.5l-10.3,2.8C165.3,245.8,165.3,245.6,165.4,245.4"/>
						<path fill="#0C5B52" d="M165.2,245.9l10.3-2.8c-0.1,0.2-0.1,0.3-0.2,0.5l-10.3,2.8C165.1,246.3,165.2,246.1,165.2,245.9"/>
						<path fill="#0C5B52" d="M165.1,246.4l10.3-2.8c0,0.2-0.1,0.3-0.1,0.5l-10.3,2.8C165,246.8,165,246.6,165.1,246.4"/>
						<path fill="#0C5B52" d="M164.9,246.9l10.3-2.8c0,0.2-0.1,0.3-0.1,0.5l-10.3,2.8C164.8,247.2,164.9,247.1,164.9,246.9"/>
						<path fill="#0C5B52" d="M164.8,247.4l10.3-2.8c0,0.2-0.1,0.3-0.1,0.5l-10.3,2.8C164.7,247.7,164.7,247.6,164.8,247.4"/>
						<path fill="#0D5B52" d="M164.6,247.9l10.3-2.8c0,0.2-0.1,0.3-0.1,0.5l-10.3,2.8C164.5,248.2,164.6,248,164.6,247.9"/>
						<path fill="#0D5C52" d="M164.5,248.4l10.3-2.8c0,0.2-0.1,0.3-0.1,0.5l-10.3,2.8C164.4,248.7,164.5,248.5,164.5,248.4"/>
						<path fill="#0D5C52" d="M164.4,248.8l10.3-2.8c0,0.2-0.1,0.3-0.1,0.5l-10.3,2.8C164.3,249.2,164.3,249,164.4,248.8"/>
						<path fill="#0D5C52" d="M164.2,249.3l10.3-2.8c0,0.2-0.1,0.3-0.1,0.5l-10.3,2.8C164.2,249.6,164.2,249.5,164.2,249.3"/>
						<path fill="#0D5C52" d="M164.1,249.8l10.3-2.8c0,0.2-0.1,0.3-0.1,0.5l-10.3,2.8C164,250.1,164.1,250,164.1,249.8"/>
						<path fill="#0D5C52" d="M164,250.3l10.3-2.8c0,0.2-0.1,0.3-0.1,0.5l-10.3,2.8C163.9,250.6,164,250.5,164,250.3"/>
						<path fill="#0D5C53" d="M163.9,250.8l10.3-2.8c0,0.2-0.1,0.3-0.1,0.5l-10.3,2.8C163.8,251.1,163.9,250.9,163.9,250.8"/>
						<path fill="#0D5C53" d="M163.8,251.3l10.3-2.8c0,0.2-0.1,0.3-0.1,0.5l-10.3,2.8C163.7,251.6,163.7,251.4,163.8,251.3"/>
						<path fill="#0D5C53" d="M163.7,251.8L174,249c0,0.2-0.1,0.3-0.1,0.5l-10.3,2.8C163.6,252.1,163.6,251.9,163.7,251.8"/>
						<path fill="#0D5C53" d="M163.6,252.2l10.3-2.8c0,0.2-0.1,0.3-0.1,0.5l-10.3,2.8C163.5,252.6,163.5,252.4,163.6,252.2"/>
						<path fill="#0D5C53" d="M163.5,252.7l10.3-2.8c0,0.2-0.1,0.3-0.1,0.5l-10.3,2.8C163.4,253,163.4,252.9,163.5,252.7"/>
						<path fill="#0D5D53" d="M163.4,253.2l10.3-2.8c0,0.2-0.1,0.3-0.1,0.5l-10.3,2.8C163.3,253.5,163.3,253.4,163.4,253.2"/>
						<path fill="#0E5D53" d="M163.3,253.7l10.3-2.8c0,0.2-0.1,0.3-0.1,0.5l-10.3,2.8C163.2,254,163.2,253.9,163.3,253.7"/>
						<path fill="#0E5D53" d="M163.2,254.2l10.3-2.8c0,0.2-0.1,0.3-0.1,0.5l-10.3,2.8C163.1,254.5,163.2,254.4,163.2,254.2"/>
						<path fill="#0E5D53" d="M163.1,254.7l10.3-2.8c0,0.2-0.1,0.3-0.1,0.5l-10.3,2.8C163,255,163.1,254.8,163.1,254.7"/>
						<path fill="#0E5D53" d="M163,255.2l10.3-2.8c0,0.2-0.1,0.3-0.1,0.5l-10.3,2.8C163,255.5,163,255.3,163,255.2"/>
						<path fill="#0E5D53" d="M162.9,255.7l10.3-2.8c0,0.2-0.1,0.3-0.1,0.5l-10.3,2.8C162.9,256,162.9,255.8,162.9,255.7"/>
						<path fill="#0E5D54" d="M162.9,256.2l10.3-2.8c0,0.2,0,0.3-0.1,0.5l-10.3,2.8C162.8,256.5,162.8,256.3,162.9,256.2"/>
						<path fill="#0E5D54" d="M162.8,256.7l10.3-2.8c0,0.2,0,0.3-0.1,0.5l-10.3,2.8C162.7,257,162.8,256.8,162.8,256.7"/>
						<path fill="#0E5D54" d="M162.7,257.2l10.3-2.8c0,0.2,0,0.3-0.1,0.5l-10.3,2.8C162.7,257.5,162.7,257.3,162.7,257.2"/>
						<path fill="#0E5E54" d="M162.6,257.7l10.3-2.8c0,0.2,0,0.3-0.1,0.5l-10.3,2.8C162.6,258,162.6,257.8,162.6,257.7"/>
						<path fill="#0E5E54" d="M162.6,258.2l10.3-2.8c0,0.2,0,0.3-0.1,0.5l-10.3,2.8C162.5,258.5,162.6,258.3,162.6,258.2"/>
						<path fill="#0E5E54" d="M162.5,258.7l10.3-2.8c0,0.2,0,0.3-0.1,0.5l-10.3,2.8C162.5,259,162.5,258.8,162.5,258.7"/>
						<path fill="#0F5E54" d="M162.5,259.2l10.3-2.8c0,0.2,0,0.3-0.1,0.5l-10.3,2.8C162.4,259.5,162.4,259.4,162.5,259.2"/>
						<path fill="#0F5E54" d="M162.4,259.7l10.3-2.8c0,0.2,0,0.3,0,0.5l-10.3,2.8C162.4,260,162.4,259.9,162.4,259.7"/>
						<path fill="#0F5E54" d="M162.4,260.2l10.3-2.8c0,0.2,0,0.3,0,0.5l-10.3,2.8C162.3,260.5,162.3,260.4,162.4,260.2"/>
						<path fill="#0F5E54" d="M162.3,260.7l10.3-2.8c0,0.2,0,0.3,0,0.5l-10.3,2.8C162.3,261.1,162.3,260.9,162.3,260.7"/>
						<path fill="#0F5E55" d="M162.3,261.2l10.3-2.8c0,0.2,0,0.3,0,0.5l-10.3,2.8C162.3,261.6,162.3,261.4,162.3,261.2"/>
						<path fill="#0F5E55" d="M162.2,261.7l10.3-2.8c0,0.2,0,0.3,0,0.5l-10.3,2.8C162.2,262.1,162.2,261.9,162.2,261.7"/>
						<path fill="#0F5E55" d="M162.2,262.3l10.3-2.8c0,0.2,0,0.4,0,0.5l-10.3,2.8C162.2,262.6,162.2,262.4,162.2,262.3"/>
						<path fill="#0F5F55" d="M162.2,262.8l10.3-2.8c0,0.2,0,0.4,0,0.5l-10.3,2.8C162.2,263.2,162.2,263,162.2,262.8"/>
						<path fill="#0F5F55" d="M162.1,263.3l10.3-2.8c0,0.2,0,0.4,0,0.5l-10.3,2.8C162.1,263.7,162.1,263.5,162.1,263.3"/>
						<path fill="#0F5F55" d="M162.1,263.9l10.3-2.8c0,0.2,0,0.4,0,0.5l-10.3,2.8C162.1,264.2,162.1,264.1,162.1,263.9"/>
						<path fill="#0F5F55" d="M162.1,264.4l10.3-2.8c0,0.2,0,0.4,0,0.5l-10.3,2.8C162.1,264.8,162.1,264.6,162.1,264.4"/>
						<path fill="#0F5F55" d="M162.1,265l10.3-2.8c0,0.2,0,0.4,0,0.5l-10.3,2.8C162.1,265.3,162.1,265.1,162.1,265"/>
						<path fill="#105F55" d="M162.1,265.5l10.3-2.8c0,0.2,0,0.4,0,0.5l-10.3,2.8C162.1,265.9,162.1,265.7,162.1,265.5"/>
						<path fill="#105F55" d="M162.1,266l10.3-2.8c0,0.2,0,0.4,0,0.5l-10.3,2.8C162.1,266.4,162.1,266.2,162.1,266"/>
						<path fill="#105F55" d="M162.1,266.6l10.3-2.8c0,0.2,0,0.4,0,0.5l-10.3,2.8C162.1,267,162.1,266.8,162.1,266.6"/>
						<path fill="#105F56" d="M162.1,267.1l10.3-2.8c0,0.2,0,0.4,0,0.5l-10.3,2.8C162.1,267.5,162.1,267.3,162.1,267.1"/>
						<path fill="#105F56" d="M162.1,267.7l10.3-2.8c0,0.1,0,0.2,0,0.3c0,0,0,0,0,0.1l-10.3,2.8c0,0,0,0,0-0.1
							C162.1,267.9,162.1,267.8,162.1,267.7"/>
						<path fill="#106056" d="M162.1,268l10.3-2.8c0,0,0,0.1,0,0.1l-10.3,2.8C162.1,268.1,162.1,268.1,162.1,268"/>
						<path fill="#106056" d="M162.1,268.2l10.3-2.8c0,0.1,0,0.1,0,0.2l-10.3,2.8C162.1,268.3,162.1,268.2,162.1,268.2"/>
						<path fill="#106056" d="M162.1,268.3l10.3-2.8c0,0.1,0,0.1,0,0.2l-10.3,2.8C162.1,268.5,162.1,268.4,162.1,268.3"/>
						<path fill="#106056" d="M162.1,268.5l10.3-2.8c0,0.2,0,0.4,0,0.7l-10.3,2.8C162.1,269,162.1,268.7,162.1,268.5"/>
						<path fill="#106056" d="M162.1,269.2l10.3-2.8c0,0.1,0,0.1,0,0.2l-10.3,2.8C162.1,269.3,162.1,269.3,162.1,269.2"/>
						<path fill="#106056" d="M162.1,269.4l10.3-2.8c0,0,0,0,0,0L162.1,269.4C162.1,269.4,162.1,269.4,162.1,269.4"/>
					</g>
				</g>
				<g enable-background="new    ">
					<defs>
						<path id="SVGID_5_" enable-background="new    " d="M174.7,53.9l10.3-2.8c17.3-4.7,35.5-7.2,54.4-7.2l-10.3,2.8
							C210.3,46.7,192,49.2,174.7,53.9z"/>
					</defs>
					<clipPath id="SVGID_6_">
						<use xlink:href="#SVGID_5_"  overflow="visible"/>
					</clipPath>
					<g clip-path="url(#SVGID_6_)" enable-background="new    ">
						<path fill="#08574E" d="M174.7,53.9l10.3-2.8c0.1,0,0.3-0.1,0.4-0.1l-10.3,2.8C175,53.8,174.9,53.8,174.7,53.9"/>
						<path fill="#08574E" d="M175.1,53.7l10.3-2.8c0.9-0.2,1.8-0.5,2.7-0.7L177.9,53C177,53.3,176,53.5,175.1,53.7"/>
						<path fill="#08574E" d="M177.9,53l10.3-2.8c0.8-0.2,1.5-0.4,2.3-0.6l-10.3,2.8C179.4,52.7,178.6,52.8,177.9,53"/>
						<path fill="#09574E" d="M180.2,52.5l10.3-2.8c0.8-0.2,1.5-0.4,2.3-0.5l-10.3,2.8C181.7,52.1,180.9,52.3,180.2,52.5"/>
						<path fill="#09574E" d="M182.5,51.9l10.3-2.8c0.8-0.2,1.5-0.3,2.3-0.5l-10.3,2.8C184,51.6,183.2,51.8,182.5,51.9"/>
						<path fill="#09574E" d="M184.8,51.4l10.3-2.8c0.8-0.2,1.5-0.3,2.3-0.5l-10.3,2.8C186.3,51.1,185.5,51.3,184.8,51.4"/>
						<path fill="#09584E" d="M187.1,50.9l10.3-2.8c0.8-0.2,1.6-0.3,2.3-0.5l-10.3,2.8C188.6,50.6,187.9,50.8,187.1,50.9"/>
						<path fill="#09584E" d="M189.4,50.5l10.3-2.8c0.8-0.2,1.6-0.3,2.3-0.4L191.8,50C191,50.2,190.2,50.3,189.4,50.5"/>
						<path fill="#09584E" d="M191.8,50l10.3-2.8c0.8-0.1,1.6-0.3,2.3-0.4l-10.3,2.8C193.3,49.7,192.5,49.9,191.8,50"/>
						<path fill="#09584F" d="M194.1,49.6l10.3-2.8c0.7-0.1,1.3-0.2,2-0.3l-10.3,2.8C195.5,49.4,194.8,49.5,194.1,49.6"/>
						<path fill="#09584F" d="M196.1,49.3l10.3-2.8c0.7-0.1,1.3-0.2,2-0.3L198.1,49C197.5,49.1,196.8,49.2,196.1,49.3"/>
						<path fill="#09584F" d="M198.1,49l10.3-2.8c0.7-0.1,1.3-0.2,2-0.3l-10.3,2.8C199.5,48.8,198.8,48.9,198.1,49"/>
						<path fill="#09584F" d="M200.2,48.7l10.3-2.8c0.7-0.1,1.4-0.2,2-0.3l-10.3,2.8C201.5,48.5,200.8,48.6,200.2,48.7"/>
						<path fill="#0A584F" d="M202.2,48.4l10.3-2.8c0.7-0.1,1.4-0.2,2-0.3l-10.3,2.8C203.5,48.2,202.9,48.3,202.2,48.4"/>
						<path fill="#0A584F" d="M204.2,48.2l10.3-2.8c0.7-0.1,1.4-0.2,2-0.2l-10.3,2.8C205.6,48,204.9,48.1,204.2,48.2"/>
						<path fill="#0A584F" d="M206.3,47.9l10.3-2.8c0.7-0.1,1.4-0.1,2-0.2l-10.3,2.8C207.6,47.8,206.9,47.9,206.3,47.9"/>
						<path fill="#0A594F" d="M208.3,47.7l10.3-2.8c0.7-0.1,1.4-0.1,2.1-0.2l-10.3,2.8C209.7,47.6,209,47.6,208.3,47.7"/>
						<path fill="#0A594F" d="M210.4,47.5l10.3-2.8c0.6-0.1,1.3-0.1,1.9-0.2l-10.3,2.8C211.7,47.4,211,47.5,210.4,47.5"/>
						<path fill="#0A594F" d="M212.3,47.4l10.3-2.8c0.6,0,1.2-0.1,1.8-0.1l-10.3,2.8C213.5,47.3,212.9,47.3,212.3,47.4"/>
						<path fill="#0A5950" d="M214.1,47.2l10.3-2.8c0.6,0,1.2-0.1,1.8-0.1L216,47.1C215.4,47.1,214.8,47.2,214.1,47.2"/>
						<path fill="#0A5950" d="M216,47.1l10.3-2.8c0.6,0,1.2-0.1,1.8-0.1L217.8,47C217.2,47,216.6,47.1,216,47.1"/>
						<path fill="#0A5950" d="M217.8,47l10.3-2.8c0.6,0,1.2-0.1,1.9-0.1l-10.3,2.8C219.1,46.9,218.5,47,217.8,47"/>
						<path fill="#0A5950" d="M219.7,46.9l10.3-2.8c0.6,0,1.2-0.1,1.9-0.1l-10.3,2.8C220.9,46.8,220.3,46.9,219.7,46.9"/>
						<path fill="#0A5950" d="M221.5,46.8l10.3-2.8c0.6,0,1.2,0,1.9-0.1l-10.3,2.8C222.8,46.8,222.2,46.8,221.5,46.8"/>
						<path fill="#0B5950" d="M223.4,46.8l10.3-2.8c0.6,0,1.2,0,1.9,0l-10.3,2.8C224.7,46.7,224,46.8,223.4,46.8"/>
						<path fill="#0B5950" d="M225.3,46.7l10.3-2.8c0.6,0,1.2,0,1.9,0l-10.3,2.8C226.5,46.7,225.9,46.7,225.3,46.7"/>
						<path fill="#0B5A50" d="M227.1,46.7l10.3-2.8c0.6,0,1.2,0,1.9,0L229,46.7C228.4,46.7,227.8,46.7,227.1,46.7"/>
						<path fill="#0B5A50" d="M229,46.7l10.3-2.8c0,0,0,0,0.1,0L229,46.7C229.1,46.7,229,46.7,229,46.7"/>
					</g>
				</g>
				<g>
					<polygon fill="#9A2C13" points="294.9,276 305.2,273.2 459.7,267.7 449.4,270.4 					"/>
				</g>
				<g>
					<path fill="#BB381F" d="M449.4,270.4c0.1,1.7,0.2,6.1,0.3,7.8H294.9c0-0.5,0-1,0-1.4c0-0.3,0-0.5,0-0.8L449.4,270.4z"/>
				</g>
				<g enable-background="new    ">
					<defs>
						<path id="SVGID_7_" enable-background="new    " d="M449.4,270.4l10.3-2.8c0.1,1.7,0.2,6.1,0.3,7.8l-10.3,2.8
							C449.6,276.5,449.4,272.2,449.4,270.4z"/>
					</defs>
					<clipPath id="SVGID_8_">
						<use xlink:href="#SVGID_7_"  overflow="visible"/>
					</clipPath>
					<g clip-path="url(#SVGID_8_)" enable-background="new    ">
						<path fill="#AC331A" d="M449.4,270.4l10.3-2.8c0,0.2,0,0.4,0,0.7l-10.3,2.8C449.4,270.9,449.4,270.6,449.4,270.4"/>
						<path fill="#AC321A" d="M449.4,271.1l10.3-2.8c0,0.5,0.1,1.2,0.1,1.9l-10.3,2.8C449.4,272.3,449.4,271.7,449.4,271.1"/>
						<path fill="#AC321A" d="M449.5,273l10.3-2.8c0,1.1,0.1,2.3,0.1,3.3l-10.3,2.8C449.5,275.3,449.5,274.1,449.5,273"/>
						<path fill="#AB321A" d="M449.6,276.4l10.3-2.8c0,0.6,0,1.1,0,1.6l-10.3,2.8C449.6,277.5,449.6,277,449.6,276.4"/>
						<path fill="#AB321A" d="M449.6,277.9l10.3-2.8c0,0.1,0,0.2,0,0.3l-10.3,2.8C449.6,278.1,449.6,278,449.6,277.9"/>
					</g>
				</g>
				<g>
					<polygon fill="#9C680F" points="294.5,264.9 304.8,262.1 456.9,237.1 446.6,239.9 					"/>
				</g>
				<g enable-background="new    ">
					<defs>
						<path id="SVGID_9_" enable-background="new    " d="M446.6,239.9l10.3-2.8c1.7,10.1,2.5,16.9,3,27.1l-10.3,2.8
							C449.1,256.8,448.3,250,446.6,239.9z"/>
					</defs>
					<clipPath id="SVGID_10_">
						<use xlink:href="#SVGID_9_"  overflow="visible"/>
					</clipPath>
					<g clip-path="url(#SVGID_10_)" enable-background="new    ">
						<path fill="#B97C18" d="M446.6,239.9l10.3-2.8c0,0.1,0,0.3,0.1,0.4l-10.3,2.8C446.6,240.2,446.6,240,446.6,239.9"/>
						<path fill="#B87C18" d="M446.7,240.3l10.3-2.8c0.2,1.1,0.4,2.1,0.5,3.1l-10.3,2.8C447,242.4,446.8,241.4,446.7,240.3"/>
						<path fill="#B87B18" d="M447.2,243.4l10.3-2.8c0.1,0.8,0.3,1.6,0.4,2.4l-10.3,2.8C447.4,245,447.3,244.2,447.2,243.4"/>
						<path fill="#B87B18" d="M447.5,245.8l10.3-2.8c0.1,0.7,0.2,1.4,0.3,2l-10.3,2.8C447.7,247.2,447.6,246.5,447.5,245.8"/>
						<path fill="#B77B18" d="M447.8,247.9l10.3-2.8c0.1,0.6,0.2,1.2,0.3,1.8l-10.3,2.8C448,249.1,447.9,248.5,447.8,247.9"/>
						<path fill="#B77B18" d="M448.1,249.7l10.3-2.8c0.1,0.6,0.1,1.1,0.2,1.7l-10.3,2.8C448.2,250.8,448.2,250.3,448.1,249.7"/>
						<path fill="#B77A17" d="M448.3,251.4l10.3-2.8c0.1,0.5,0.1,1.1,0.2,1.6l-10.3,2.8C448.4,252.5,448.4,251.9,448.3,251.4"/>
						<path fill="#B67A17" d="M448.5,253l10.3-2.8c0.1,0.5,0.1,1.1,0.2,1.6l-10.3,2.8C448.6,254.1,448.6,253.5,448.5,253"/>
						<path fill="#B67A17" d="M448.7,254.6l10.3-2.8c0.1,0.5,0.1,1.1,0.2,1.6l-10.3,2.8C448.8,255.7,448.7,255.1,448.7,254.6"/>
						<path fill="#B67A17" d="M448.8,256.2l10.3-2.8c0.1,0.5,0.1,1.1,0.2,1.6l-10.3,2.8C448.9,257.3,448.9,256.7,448.8,256.2"/>
						<path fill="#B57A17" d="M449,257.8l10.3-2.8c0.1,0.6,0.1,1.2,0.1,1.7l-10.3,2.8C449.1,259,449,258.4,449,257.8"/>
						<path fill="#B57917" d="M449.1,259.6l10.3-2.8c0,0.6,0.1,1.3,0.1,1.9l-10.3,2.8C449.2,260.8,449.2,260.2,449.1,259.6"/>
						<path fill="#B57917" d="M449.3,261.5l10.3-2.8c0.1,0.7,0.1,1.4,0.1,2.2l-10.3,2.8C449.4,262.9,449.3,262.2,449.3,261.5"/>
						<path fill="#B57917" d="M449.4,263.7l10.3-2.8c0.1,0.9,0.1,1.7,0.2,2.7l-10.3,2.8C449.5,265.4,449.5,264.6,449.4,263.7"/>
						<path fill="#B47917" d="M449.6,266.3l10.3-2.8c0,0.2,0,0.4,0,0.6l-10.3,2.8C449.6,266.8,449.6,266.6,449.6,266.3"/>
					</g>
				</g>
				<g>
					<path fill="#C4831B" d="M446.6,239.9c1.7,10.1,2.5,16.9,3,27.1l-154.5,5.6c-0.1-2.6-0.3-5.2-0.6-7.7L446.6,239.9z"/>
				</g>
				<g>
					<path fill="#14655B" d="M229.1,46.7c107.4,0,197.6,78.3,216.4,187.9l-152.1,25c-4.6-33.6-32.9-59.7-66.6-59.7
						c-36.5,0-65.4,30.5-64.8,68.2c0,0.5,0,1,0.1,1.4H17.4C15.2,146.4,110,46.7,229.1,46.7z"/>
				</g>
				<g enable-background="new    ">
					<defs>
						<path id="SVGID_11_" enable-background="new    " d="M229.1,46.7l10.3-2.8c107.4,0,197.6,78.3,216.4,187.9l-10.3,2.8
							C426.7,125,336.5,46.7,229.1,46.7z"/>
					</defs>
					<clipPath id="SVGID_12_">
						<use xlink:href="#SVGID_11_"  overflow="visible"/>
					</clipPath>
					<g clip-path="url(#SVGID_12_)" enable-background="new    ">
						<path fill="#0B5A50" d="M229.1,46.7l10.3-2.8c0.6,0,1.2,0,1.7,0l-10.3,2.8C230.2,46.7,229.7,46.7,229.1,46.7"/>
						<path fill="#0B5A50" d="M230.8,46.7l10.3-2.8c0.6,0,1.2,0,1.8,0l-10.3,2.8C232,46.7,231.4,46.7,230.8,46.7"/>
						<path fill="#0B5A50" d="M232.6,46.7l10.3-2.8c0.6,0,1.2,0,1.8,0l-10.3,2.8C233.8,46.7,233.2,46.7,232.6,46.7"/>
						<path fill="#0B5A51" d="M234.4,46.8l10.3-2.8c0.6,0,1.2,0,1.8,0.1l-10.3,2.8C235.6,46.8,235,46.8,234.4,46.8"/>
						<path fill="#0B5A51" d="M236.2,46.8l10.3-2.8c0.6,0,1.2,0,1.8,0.1L238,46.9C237.4,46.8,236.8,46.8,236.2,46.8"/>
						<path fill="#0B5A51" d="M238,46.9l10.3-2.8c0.6,0,1.2,0.1,1.8,0.1L239.8,47C239.2,46.9,238.6,46.9,238,46.9"/>
						<path fill="#0B5A51" d="M239.8,47l10.3-2.8c0.6,0,1.2,0.1,1.8,0.1L241.6,47C241,47,240.4,47,239.8,47"/>
						<path fill="#0B5A51" d="M241.6,47l10.3-2.8c0.6,0,1.2,0.1,1.8,0.1l-10.3,2.8C242.7,47.1,242.2,47.1,241.6,47"/>
						<path fill="#0C5A51" d="M243.3,47.2l10.3-2.8c0.6,0,1.2,0.1,1.8,0.1l-10.3,2.8C244.5,47.2,243.9,47.2,243.3,47.2"/>
						<path fill="#0C5B51" d="M245.1,47.3l10.3-2.8c0.6,0,1.1,0.1,1.7,0.1l-10.3,2.8C246.2,47.4,245.7,47.3,245.1,47.3"/>
						<path fill="#0C5B51" d="M246.8,47.4l10.3-2.8c0.6,0,1.1,0.1,1.7,0.1l-10.3,2.8C247.9,47.5,247.4,47.5,246.8,47.4"/>
						<path fill="#0C5B51" d="M248.5,47.6l10.3-2.8c0.6,0,1.1,0.1,1.7,0.2l-10.3,2.8C249.6,47.7,249,47.6,248.5,47.6"/>
						<path fill="#0C5B51" d="M250.2,47.7l10.3-2.8c0.6,0.1,1.1,0.1,1.7,0.2l-10.3,2.8C251.3,47.8,250.7,47.8,250.2,47.7"/>
						<path fill="#0C5B52" d="M251.8,47.9l10.3-2.8c0.6,0.1,1.1,0.1,1.7,0.2l-10.3,2.8C253,48,252.4,47.9,251.8,47.9"/>
						<path fill="#0C5B52" d="M253.5,48.1l10.3-2.8c0.6,0.1,1.1,0.1,1.7,0.2l-10.3,2.8C254.6,48.2,254.1,48.1,253.5,48.1"/>
						<path fill="#0C5B52" d="M255.2,48.3l10.3-2.8c0.6,0.1,1.1,0.1,1.7,0.2l-10.3,2.8C256.3,48.4,255.8,48.3,255.2,48.3"/>
						<path fill="#0C5B52" d="M256.9,48.5l10.3-2.8c0.6,0.1,1.1,0.1,1.7,0.2l-10.3,2.8C258,48.6,257.4,48.5,256.9,48.5"/>
						<path fill="#0C5B52" d="M258.5,48.7l10.3-2.8c0.6,0.1,1.1,0.2,1.7,0.2l-10.3,2.8C259.6,48.8,259.1,48.8,258.5,48.7"/>
						<path fill="#0D5B52" d="M260.2,48.9l10.3-2.8c0.5,0.1,1.1,0.2,1.6,0.2l-10.3,2.8C261.3,49.1,260.7,49,260.2,48.9"/>
						<path fill="#0D5C52" d="M261.8,49.2l10.3-2.8c0.5,0.1,1.1,0.2,1.6,0.3l-10.3,2.8C262.9,49.3,262.4,49.2,261.8,49.2"/>
						<path fill="#0D5C52" d="M263.4,49.4l10.3-2.8c0.5,0.1,1.1,0.2,1.6,0.3L265,49.7C264.5,49.6,264,49.5,263.4,49.4"/>
						<path fill="#0D5C52" d="M265,49.7l10.3-2.8c0.5,0.1,1.1,0.2,1.6,0.3l-10.3,2.8C266.1,49.9,265.6,49.8,265,49.7"/>
						<path fill="#0D5C52" d="M266.7,49.9l10.3-2.8c0.5,0.1,1.1,0.2,1.6,0.3l-10.3,2.8C267.7,50.1,267.2,50,266.7,49.9"/>
						<path fill="#0D5C52" d="M268.3,50.2l10.3-2.8c0.5,0.1,1.1,0.2,1.6,0.3l-10.3,2.8C269.3,50.4,268.8,50.3,268.3,50.2"/>
						<path fill="#0D5C53" d="M269.9,50.5l10.3-2.8c0.5,0.1,1.1,0.2,1.6,0.3l-10.3,2.8C270.9,50.7,270.4,50.6,269.9,50.5"/>
						<path fill="#0D5C53" d="M271.5,50.8l10.3-2.8c0.5,0.1,1.1,0.2,1.6,0.3L273,51.2C272.5,51.1,272,51,271.5,50.8"/>
						<path fill="#0D5C53" d="M273,51.2l10.3-2.8c0.5,0.1,1.1,0.2,1.6,0.3l-10.3,2.8C274.1,51.4,273.6,51.3,273,51.2"/>
						<path fill="#0D5C53" d="M274.6,51.5l10.3-2.8c0.5,0.1,1.1,0.2,1.6,0.3l-10.3,2.8C275.7,51.7,275.2,51.6,274.6,51.5"/>
						<path fill="#0D5C53" d="M276.2,51.9l10.3-2.8c0.5,0.1,1.1,0.2,1.6,0.4l-10.3,2.8C277.3,52.1,276.7,52,276.2,51.9"/>
						<path fill="#0D5D53" d="M277.8,52.2l10.3-2.8c0.5,0.1,1,0.2,1.6,0.4l-10.3,2.8C278.8,52.5,278.3,52.3,277.8,52.2"/>
						<path fill="#0E5D53" d="M279.4,52.6l10.3-2.8c0.5,0.1,1,0.3,1.6,0.4L280.9,53C280.4,52.8,279.9,52.7,279.4,52.6"/>
						<path fill="#0E5D53" d="M280.9,53l10.3-2.8c0.5,0.1,1,0.3,1.6,0.4l-10.3,2.8C282,53.2,281.5,53.1,280.9,53"/>
						<path fill="#0E5D53" d="M282.5,53.3l10.3-2.8c0.5,0.1,1,0.3,1.6,0.4l-10.3,2.8C283.5,53.6,283,53.5,282.5,53.3"/>
						<path fill="#0E5D53" d="M284.1,53.8l10.3-2.8c0.5,0.1,1,0.3,1.6,0.4l-10.3,2.8C285.1,54,284.6,53.9,284.1,53.8"/>
						<path fill="#0E5D53" d="M285.6,54.2l10.3-2.8c0.5,0.1,1,0.3,1.6,0.4l-10.3,2.8C286.7,54.5,286.1,54.3,285.6,54.2"/>
						<path fill="#0E5D54" d="M287.2,54.6l10.3-2.8c0.5,0.1,1,0.3,1.5,0.4L288.7,55C288.2,54.9,287.7,54.7,287.2,54.6"/>
						<path fill="#0E5D54" d="M288.7,55l10.3-2.8c0.5,0.1,1,0.3,1.5,0.4l-10.3,2.8C289.8,55.3,289.2,55.2,288.7,55"/>
						<path fill="#0E5D54" d="M290.3,55.5l10.3-2.8c0.5,0.2,1,0.3,1.6,0.5l-10.3,2.8C291.3,55.8,290.8,55.6,290.3,55.5"/>
						<path fill="#0E5E54" d="M291.8,55.9l10.3-2.8c0.5,0.2,1,0.3,1.6,0.5l-10.3,2.8C292.9,56.3,292.3,56.1,291.8,55.9"/>
						<path fill="#0E5E54" d="M293.4,56.4l10.3-2.8c0.5,0.2,1,0.3,1.6,0.5l-10.3,2.8C294.4,56.8,293.9,56.6,293.4,56.4"/>
						<path fill="#0E5E54" d="M294.9,56.9l10.3-2.8c0.5,0.2,1,0.3,1.6,0.5l-10.3,2.8C296,57.3,295.5,57.1,294.9,56.9"/>
						<path fill="#0F5E54" d="M296.5,57.4l10.3-2.8c0.5,0.2,1,0.3,1.5,0.5L298,57.9C297.5,57.8,297,57.6,296.5,57.4"/>
						<path fill="#0F5E54" d="M298,57.9l10.3-2.8c0.5,0.2,1,0.3,1.5,0.5l-10.3,2.8C299.1,58.3,298.6,58.1,298,57.9"/>
						<path fill="#0F5E54" d="M299.6,58.5l10.3-2.8c0.5,0.2,1,0.4,1.5,0.5L301.1,59C300.6,58.8,300.1,58.6,299.6,58.5"/>
						<path fill="#0F5E54" d="M301.1,59l10.3-2.8c0.5,0.2,1,0.4,1.5,0.6l-10.3,2.8C302.2,59.4,301.6,59.2,301.1,59"/>
						<path fill="#0F5E55" d="M302.7,59.6l10.3-2.8c0.5,0.2,1,0.4,1.5,0.6l-10.3,2.8C303.7,59.9,303.2,59.7,302.7,59.6"/>
						<path fill="#0F5E55" d="M304.2,60.1l10.3-2.8c0.5,0.2,1,0.4,1.5,0.6l-10.3,2.8C305.2,60.5,304.7,60.3,304.2,60.1"/>
						<path fill="#0F5E55" d="M305.7,60.7l10.3-2.8c0.5,0.2,1.1,0.4,1.6,0.6l-10.3,2.8C306.8,61.1,306.2,60.9,305.7,60.7"/>
						<path fill="#0F5F55" d="M307.3,61.3l10.3-2.8c0.5,0.2,1.1,0.4,1.6,0.6l-10.3,2.8C308.4,61.7,307.8,61.5,307.3,61.3"/>
						<path fill="#0F5F55" d="M308.9,61.9l10.3-2.8c0.5,0.2,1,0.4,1.6,0.6l-10.3,2.8C309.9,62.3,309.4,62.1,308.9,61.9"/>
						<path fill="#0F5F55" d="M310.5,62.6l10.3-2.8c0.5,0.2,1,0.4,1.6,0.6L312,63.2C311.5,63,311,62.8,310.5,62.6"/>
						<path fill="#0F5F55" d="M312,63.2l10.3-2.8c0.5,0.2,1,0.4,1.6,0.7l-10.3,2.8C313.1,63.6,312.5,63.4,312,63.2"/>
						<path fill="#0F5F55" d="M313.6,63.9l10.3-2.8c0.5,0.2,1,0.4,1.6,0.7l-10.3,2.8C314.6,64.3,314.1,64.1,313.6,63.9"/>
						<path fill="#105F55" d="M315.1,64.5l10.3-2.8c0.5,0.2,1,0.5,1.5,0.7l-10.3,2.8C316.2,65,315.6,64.8,315.1,64.5"/>
						<path fill="#105F55" d="M316.7,65.2l10.3-2.8c0.5,0.2,1,0.5,1.5,0.7l-10.3,2.8C317.7,65.7,317.2,65.4,316.7,65.2"/>
						<path fill="#105F55" d="M318.2,65.9l10.3-2.8c0.5,0.2,1,0.5,1.5,0.7l-10.3,2.8C319.2,66.4,318.7,66.1,318.2,65.9"/>
						<path fill="#105F56" d="M319.8,66.6l10.3-2.8c0.5,0.3,1.1,0.5,1.6,0.8l-10.3,2.8C320.8,67.1,320.3,66.9,319.8,66.6"/>
						<path fill="#105F56" d="M321.4,67.4l10.3-2.8c0.5,0.3,1.1,0.5,1.6,0.8L323,68.2C322.5,67.9,321.9,67.6,321.4,67.4"/>
						<path fill="#106056" d="M323,68.2l10.3-2.8c0.5,0.3,1.1,0.5,1.6,0.8l-10.3,2.8C324.1,68.7,323.5,68.4,323,68.2"/>
						<path fill="#106056" d="M324.6,68.9l10.3-2.8c0.5,0.3,1.1,0.5,1.6,0.8l-10.3,2.8C325.7,69.5,325.2,69.2,324.6,68.9"/>
						<path fill="#106056" d="M326.2,69.7l10.3-2.8c0.5,0.3,1.1,0.5,1.6,0.8l-10.3,2.8C327.3,70.3,326.8,70,326.2,69.7"/>
						<path fill="#106056" d="M327.8,70.6l10.3-2.8c0.5,0.3,1.1,0.6,1.6,0.8l-10.3,2.8C328.9,71.1,328.4,70.8,327.8,70.6"/>
						<path fill="#106056" d="M329.4,71.4l10.3-2.8c0.5,0.3,1.1,0.6,1.6,0.8L331,72.2C330.5,72,330,71.7,329.4,71.4"/>
						<path fill="#106056" d="M331,72.2l10.3-2.8c0.5,0.3,1.1,0.6,1.6,0.9l-10.3,2.8C332.1,72.8,331.5,72.5,331,72.2"/>
						<path fill="#106056" d="M332.6,73.1l10.3-2.8c0.6,0.3,1.1,0.6,1.7,0.9L334.2,74C333.7,73.7,333.1,73.4,332.6,73.1"/>
						<path fill="#106056" d="M334.2,74l10.3-2.8c0.6,0.3,1.1,0.6,1.7,1L336,75C335.4,74.7,334.8,74.3,334.2,74"/>
						<path fill="#116056" d="M336,75l10.3-2.8c0.6,0.3,1.1,0.7,1.7,1L337.7,76C337.1,75.6,336.5,75.3,336,75"/>
						<path fill="#116057" d="M337.7,76l10.3-2.8c0.6,0.3,1.1,0.7,1.7,1L339.3,77C338.8,76.6,338.2,76.3,337.7,76"/>
						<path fill="#116157" d="M339.3,77l10.3-2.8c0.6,0.3,1.1,0.7,1.7,1L341,78C340.5,77.6,339.9,77.3,339.3,77"/>
						<path fill="#116157" d="M341,78l10.3-2.8c0.6,0.3,1.1,0.7,1.7,1L342.7,79C342.1,78.7,341.6,78.3,341,78"/>
						<path fill="#116157" d="M342.7,79l10.3-2.8c0.6,0.3,1.1,0.7,1.7,1L344.4,80C343.8,79.7,343.2,79.3,342.7,79"/>
						<path fill="#116157" d="M344.4,80l10.3-2.8c0.6,0.3,1.1,0.7,1.7,1.1L346,81.1C345.5,80.7,344.9,80.4,344.4,80"/>
						<path fill="#116157" d="M346,81.1l10.3-2.8c0.6,0.4,1.2,0.8,1.8,1.2l-10.3,2.8C347.2,81.9,346.6,81.5,346,81.1"/>
						<path fill="#116157" d="M347.8,82.3l10.3-2.8c0.6,0.4,1.2,0.8,1.8,1.2l-10.3,2.8C349,83.1,348.4,82.7,347.8,82.3"/>
						<path fill="#116157" d="M349.7,83.5l10.3-2.8c0.6,0.4,1.2,0.8,1.8,1.2l-10.3,2.8C350.9,84.3,350.3,83.9,349.7,83.5"/>
						<path fill="#116157" d="M351.5,84.8l10.3-2.8c0.6,0.4,1.2,0.8,1.8,1.3L353.3,86C352.7,85.6,352.1,85.2,351.5,84.8"/>
						<path fill="#116157" d="M353.3,86l10.3-2.8c0.6,0.4,1.2,0.9,1.8,1.3l-10.3,2.8C354.5,86.9,353.9,86.4,353.3,86"/>
						<path fill="#116158" d="M355.1,87.3l10.3-2.8c0.6,0.4,1.2,0.9,1.8,1.3l-10.3,2.8C356.3,88.2,355.7,87.7,355.1,87.3"/>
						<path fill="#126258" d="M356.9,88.6l10.3-2.8c0.6,0.4,1.2,0.9,1.8,1.3l-10.3,2.8C358.1,89.5,357.5,89,356.9,88.6"/>
						<path fill="#126258" d="M358.6,89.9l10.3-2.8c0.7,0.5,1.4,1,2,1.6l-10.3,2.8C360,91,359.3,90.4,358.6,89.9"/>
						<path fill="#126258" d="M360.7,91.5l10.3-2.8c0.7,0.5,1.4,1.1,2,1.6l-10.3,2.8C362,92.5,361.4,92,360.7,91.5"/>
						<path fill="#126258" d="M362.7,93.1l10.3-2.8c0.7,0.5,1.3,1.1,2,1.6l-10.3,2.8C364.1,94.1,363.4,93.6,362.7,93.1"/>
						<path fill="#126258" d="M364.7,94.7l10.3-2.8c0.7,0.5,1.3,1.1,2,1.6l-10.3,2.8C366.1,95.8,365.4,95.2,364.7,94.7"/>
						<path fill="#126258" d="M366.7,96.3l10.3-2.8c0.7,0.6,1.3,1.1,2,1.7L368.7,98C368.1,97.4,367.4,96.9,366.7,96.3"/>
						<path fill="#126258" d="M368.7,98l10.3-2.8c0.7,0.6,1.3,1.1,2,1.7l-10.3,2.8C370.1,99.1,369.4,98.6,368.7,98"/>
						<path fill="#126258" d="M370.7,99.7l10.3-2.8c0.8,0.7,1.6,1.4,2.4,2.1l-10.3,2.8C372.3,101.1,371.5,100.4,370.7,99.7"/>
						<path fill="#126258" d="M373.1,101.8l10.3-2.8c0.8,0.7,1.6,1.4,2.4,2.1l-10.3,2.8C374.7,103.2,373.9,102.5,373.1,101.8"/>
						<path fill="#126258" d="M375.5,104l10.3-2.8c0.8,0.7,1.6,1.4,2.3,2.2l-10.3,2.8C377,105.4,376.3,104.7,375.5,104"/>
						<path fill="#126359" d="M377.8,106.1l10.3-2.8c0.8,0.7,1.5,1.5,2.3,2.2l-10.3,2.8C379.3,107.6,378.6,106.9,377.8,106.1"/>
						<path fill="#126359" d="M380.1,108.4l10.3-2.8c0.8,0.8,1.7,1.6,2.5,2.5l-10.3,2.8C381.8,110,381,109.2,380.1,108.4"/>
						<path fill="#126359" d="M382.6,110.8l10.3-2.8c1,1,2,2,3,3.1l-10.3,2.8C384.6,112.9,383.6,111.9,382.6,110.8"/>
						<path fill="#126359" d="M385.6,113.9l10.3-2.8c1,1,2,2.1,2.9,3.1l-10.3,2.8C387.6,116,386.6,115,385.6,113.9"/>
						<path fill="#136359" d="M388.5,117l10.3-2.8c1,1.1,1.9,2.1,2.9,3.2l-10.3,2.8C390.4,119.2,389.5,118.1,388.5,117"/>
						<path fill="#136359" d="M391.4,120.2l10.3-2.8c1.3,1.5,2.6,3,3.9,4.6l-10.3,2.8C394,123.3,392.7,121.7,391.4,120.2"/>
						<path fill="#136359" d="M395.3,124.8l10.3-2.8c1.4,1.7,2.8,3.4,4.2,5.2l-10.3,2.8C398.1,128.3,396.7,126.5,395.3,124.8"/>
						<path fill="#136359" d="M399.5,130l10.3-2.8c2.2,2.8,4.3,5.6,6.4,8.5l-10.3,2.8C403.8,135.6,401.7,132.8,399.5,130"/>
						<path fill="#136359" d="M405.9,138.5l10.3-2.8c4.9,7,9.5,14.2,13.7,21.8l-10.3,2.8C415.4,152.8,410.9,145.5,405.9,138.5"/>
						<path fill="#136359" d="M419.6,160.3l10.3-2.8c1.5,2.7,2.9,5.3,4.2,8.1l-10.3,2.8C422.5,165.7,421.1,163,419.6,160.3"/>
						<path fill="#136359" d="M423.9,168.4l10.3-2.8c1.1,2.2,2.2,4.4,3.2,6.7l-10.3,2.8C426,172.8,425,170.6,423.9,168.4"/>
						<path fill="#136359" d="M427.1,175l10.3-2.8c0.7,1.6,1.4,3.2,2.1,4.8l-10.3,2.8C428.5,178.2,427.8,176.6,427.1,175"/>
						<path fill="#136359" d="M429.2,179.8l10.3-2.8c0.7,1.6,1.4,3.2,2,4.8l-10.3,2.8C430.6,183,429.9,181.4,429.2,179.8"/>
						<path fill="#126359" d="M431.2,184.6l10.3-2.8c0.6,1.4,1.2,2.9,1.7,4.3l-10.3,2.8C432.4,187.5,431.8,186,431.2,184.6"/>
						<path fill="#126359" d="M432.9,188.9l10.3-2.8c0.4,1.2,0.9,2.3,1.3,3.5l-10.3,2.8C433.8,191.2,433.4,190.1,432.9,188.9"/>
						<path fill="#126359" d="M434.3,192.4l10.3-2.8c0.4,1.2,0.8,2.3,1.3,3.5l-10.3,2.8C435.1,194.7,434.7,193.6,434.3,192.4"/>
						<path fill="#126359" d="M435.5,195.9l10.3-2.8c0.4,1.2,0.8,2.4,1.2,3.5l-10.3,2.8C436.3,198.3,435.9,197.1,435.5,195.9"/>
						<path fill="#126258" d="M436.7,199.5l10.3-2.8c0.4,1.2,0.8,2.3,1.1,3.5l-10.3,2.8C437.5,201.8,437.1,200.6,436.7,199.5"/>
						<path fill="#126258" d="M437.9,203l10.3-2.8c0.3,0.9,0.6,1.9,0.9,2.8l-10.3,2.8C438.4,204.8,438.2,203.9,437.9,203"/>
						<path fill="#126258" d="M438.7,205.8l10.3-2.8c0.3,0.9,0.6,1.9,0.8,2.8l-10.3,2.8C439.3,207.7,439,206.7,438.7,205.8"/>
						<path fill="#126258" d="M439.6,208.6l10.3-2.8c0.3,1,0.5,1.9,0.8,2.9l-10.3,2.8C440.1,210.5,439.8,209.6,439.6,208.6"/>
						<path fill="#126258" d="M440.4,211.5l10.3-2.8c0.3,1,0.5,1.9,0.8,2.9l-10.3,2.8C440.9,213.4,440.6,212.5,440.4,211.5"/>
						<path fill="#126258" d="M441.1,214.4l10.3-2.8c0.3,1,0.5,1.9,0.7,2.9l-10.3,2.8C441.6,216.3,441.4,215.4,441.1,214.4"/>
						<path fill="#126258" d="M441.9,217.3l10.3-2.8c0.2,0.9,0.4,1.7,0.6,2.6l-10.3,2.8C442.3,219,442.1,218.2,441.9,217.3"/>
						<path fill="#126258" d="M442.5,219.9l10.3-2.8c0.2,0.8,0.4,1.6,0.6,2.5l-10.3,2.8C442.9,221.6,442.7,220.7,442.5,219.9"/>
						<path fill="#126258" d="M443.1,222.4l10.3-2.8c0.2,0.8,0.4,1.6,0.5,2.5l-10.3,2.8C443.5,224,443.3,223.2,443.1,222.4"/>
						<path fill="#126258" d="M443.6,224.9l10.3-2.8c0.2,0.8,0.3,1.7,0.5,2.5l-10.3,2.8C444,226.5,443.8,225.7,443.6,224.9"/>
						<path fill="#116158" d="M444.1,227.3l10.3-2.8c0.2,0.8,0.3,1.7,0.5,2.5l-10.3,2.8C444.5,229,444.3,228.2,444.1,227.3"/>
						<path fill="#116157" d="M444.6,229.8L455,227c0.2,0.8,0.3,1.7,0.5,2.5l-10.3,2.8C445,231.5,444.8,230.7,444.6,229.8"/>
						<path fill="#116157" d="M445.1,232.3l10.3-2.8c0.1,0.7,0.3,1.5,0.4,2.2l-10.3,2.8C445.4,233.8,445.2,233.1,445.1,232.3"/>
					</g>
				</g>
			</g>
		</g>
	</g>
	<polyline fill="none" stroke="#1A7065" stroke-width="2" stroke-miterlimit="10" points="508,281.5 272.3,280.9 255,280.8 	"/>
	<polyline fill="none" stroke="#000000" stroke-width="0.5" stroke-linecap="round" stroke-miterlimit="10" points="460.6,250.4 
		483.1,236.4 483.1,172.4 	"/>
	<polyline fill="none" stroke="#000000" stroke-width="0.5" stroke-linecap="round" stroke-miterlimit="10" points="460.6,273.2 
		505.1,248.4 505.1,227.6 	"/>
	<text transform="matrix(1 0 0 1 463.8779 140.9199)" font-family="'Bebas'" font-size="13.4761px">Pending</text>
	<text transform="matrix(1 0 0 1 463.8789 172.3555)" font-family="'Bebas'" font-size="26.9523px">4</text>
	<text transform="matrix(1 0 0 1 476.4287 162.2485)" font-family="'Bebas'" font-size="12.3531px">.07%</text>
	<text transform="matrix(1 0 0 1 491.5342 193.8887)" font-family="'Bebas'" font-size="12.3531px">Exposure</text>
	<text transform="matrix(1 0 0 1 491.5342 223.1172)" font-family="'Bebas'" font-size="26.9523px">0</text>
	<text transform="matrix(1 0 0 1 505.1064 212.4487)" font-family="'Bebas'" font-size="12.3531px">.70%</text>
	
		<line fill="none" stroke="#90291D" stroke-width="0.25" stroke-linecap="round" stroke-miterlimit="10" x1="297.4" y1="272.9" x2="298.8" y2="278.3"/>
	<text transform="matrix(1 0 0 1 239.5288 140.9189)" fill="#FFFFFF" font-family="'Bebas'" font-size="30.3213px">.13%</text>
	<text transform="matrix(1 0 0 1 190.4912 156.6426)" fill="#FFFFFF" font-family="'Bebas'" font-size="47.1665px">95</text>
	<text transform="matrix(1 0 0 1 214.8252 101.4292)" fill="#FFFFFF" font-family="'Bebas'" font-size="13.4761px">Commited</text>
	
		<line fill="none" stroke="#B0254F" stroke-width="2" stroke-linecap="round" stroke-miterlimit="10" x1="255" y1="292.1" x2="508" y2="295.6"/>
	<text transform="matrix(1 0 0 1 511.5 284.0699)" font-family="'Bebas'" font-size="12px">$63,821,448</text>
	<text transform="matrix(1 0 0 1 486.5348 317.5)" font-family="'Bebas'" font-size="12px">$64,332,327</text>
	<text transform="matrix(1 0 0 1 514.5 300.9992)" font-family="'Bebas'" font-size="10px">EFC</text>
	<text transform="matrix(1 0 0 1 509.1717 268.2841)" font-family="'Bebas'" font-size="9px">Approved  Budget</text>
</g>
<g id="Layer_3">
</g>
<g id="Layer_2">
</g>
</svg>
